# xmcd
#
# Track frame offsets: 
#        150
#        19701
#        39903
#        56815
#        71225
#        86329
#        106002
#        119979
#        139185
#        159265
#        174852
#        188861
#        200259
#        215123
#        242779
#
# Disc length: 3635 seconds
#
# Revision: 1
# Processed by: cddbd v1.5.2PL0 Copyright (c) Steve Scherf et al.
# Submitted via: ExactAudioCopyFreeDBPlugin 1.0
#
DISCID=d20e310f
DTITLE=Luz Casal - Un Ramo De Rosas
DYEAR=2011
DGENRE=Jazz
TTITLE0=Gracias a la vida
TTITLE1=Piensa en mi
TTITLE2=Historia de un amor
TTITLE3=18 Años de amor [nouvelle vague mix]
TTITLE4=Un año de amor
TTITLE5=Alma mía
TTITLE6=Un ramo de rosas
TTITLE7=No me importa nada
TTITLE8=Amado mío [with Quatuor Ébène]
TTITLE9=Con mil desengaños
TTITLE10=Un nuevo día brillará
TTITLE11=No me vayas a engañar
TTITLE12=Inesperadamente
TTITLE13=Entre mis recuerdos
TTITLE14=Bonus
EXTD=YEAR: 2011
EXTT0=
EXTT1=
EXTT2=
EXTT3=
EXTT4=
EXTT5=
EXTT6=
EXTT7=
EXTT8=
EXTT9=
EXTT10=
EXTT11=
EXTT12=
EXTT13=
EXTT14=
PLAYORDER=
